<svg width="207" height="25" viewBox="0 0 207 25" fill="none" xmlns="http://www.w3.org/2000/svg">
<g clip-path="url(#clip0_28_911)">
<g filter="url(#filter0_d_28_911)">
<path d="M0 4C0 2.34315 1.34315 1 3 1H20C21.6569 1 23 2.34315 23 4V22C23 23.6569 21.6569 25 20 25H3C1.34315 25 0 23.6569 0 22V4Z" fill="#A8A8A8"/>
</g>
<path d="M3 1H20C21.1046 1 22 1.89543 22 3V20C22 21.1046 21.1046 22 20 22H3C1.89543 22 1 21.1046 1 20V3C1 1.89543 1.89543 1 3 1Z" fill="#2D3640" stroke="white" stroke-width="2"/>
<text style="font-size=16px;">DevChecklists</text>
<path fill-rule="evenodd" clip-rule="evenodd" d="M36.2409 4.85694V19.6444H39.6635C40.6927 19.6377 41.6118 19.4667 42.421 19.1316C43.2301 18.7964 43.9139 18.3292 44.4725 17.73C45.0311 17.1308 45.4577 16.4131 45.7522 15.5769C46.0468 14.7407 46.1974 13.8148 46.2042 12.7991V11.7124C46.1974 10.6968 46.0468 9.77088 45.7522 8.93468C45.4577 8.09847 45.0311 7.38077 44.4725 6.78155C43.9139 6.18233 43.2301 5.71515 42.421 5.37999C41.6118 5.04483 40.6927 4.87048 39.6635 4.85694H36.2409ZM38.1503 18.1108V6.40069H39.6635C40.4625 6.41423 41.1531 6.55642 41.7354 6.82725C42.3177 7.09809 42.7984 7.46879 43.1776 7.93936C43.5568 8.40994 43.8411 8.96514 44.0307 9.60499C44.2203 10.2448 44.3185 10.9405 44.3253 11.6921V12.7991C44.3185 13.5507 44.222 14.2481 44.0358 14.8913C43.8496 15.5345 43.5652 16.0931 43.1827 16.5671C42.8001 17.0411 42.3177 17.4151 41.7354 17.6894C41.1531 17.9636 40.4625 18.1041 39.6635 18.1108H38.1503Z" fill="black"/>
<path fill-rule="evenodd" clip-rule="evenodd" d="M36.2409 4.85694V19.6444H39.6635C40.6927 19.6377 41.6118 19.4667 42.421 19.1316C43.2301 18.7964 43.9139 18.3292 44.4725 17.73C45.0311 17.1308 45.4577 16.4131 45.7522 15.5769C46.0468 14.7407 46.1974 13.8148 46.2042 12.7991V11.7124C46.1974 10.6968 46.0468 9.77088 45.7522 8.93468C45.4577 8.09847 45.0311 7.38077 44.4725 6.78155C43.9139 6.18233 43.2301 5.71515 42.421 5.37999C41.6118 5.04483 40.6927 4.87048 39.6635 4.85694H36.2409ZM38.1503 18.1108V6.40069H39.6635C40.4625 6.41423 41.1531 6.55642 41.7354 6.82725C42.3177 7.09809 42.7984 7.46879 43.1776 7.93936C43.5568 8.40994 43.8411 8.96514 44.0307 9.60499C44.2203 10.2448 44.3185 10.9405 44.3253 11.6921V12.7991C44.3185 13.5507 44.222 14.2481 44.0358 14.8913C43.8496 15.5345 43.5652 16.0931 43.1827 16.5671C42.8001 17.0411 42.3177 17.4151 41.7354 17.6894C41.1531 17.9636 40.4625 18.1041 39.6635 18.1108H38.1503Z" fill="#47CC68"/>
<path fill-rule="evenodd" clip-rule="evenodd" d="M51.6428 19.4515C52.2895 19.7155 52.9987 19.8476 53.7706 19.8476C54.3055 19.8476 54.7997 19.7883 55.2534 19.6698C55.707 19.5513 56.1133 19.3939 56.4721 19.1976C56.831 19.0012 57.1475 18.7761 57.4218 18.5222C57.696 18.2683 57.9245 18.0025 58.1073 17.7249L56.9596 16.8312C56.6143 17.278 56.181 17.6369 55.6596 17.9077C55.1383 18.1786 54.5425 18.314 53.8721 18.314C53.3643 18.314 52.9005 18.2192 52.4807 18.0296C52.0609 17.84 51.7004 17.581 51.3991 17.2526C51.0978 16.9243 50.8608 16.54 50.6882 16.0999C50.5155 15.6598 50.419 15.1892 50.3987 14.6882H58.2495V13.8452C58.2495 13.0801 58.153 12.3692 57.96 11.7124C57.7671 11.0556 57.4742 10.4852 57.0815 10.0011C56.6888 9.51697 56.1962 9.1378 55.6038 8.86358C55.0113 8.58936 54.319 8.45226 53.5268 8.45226C52.8971 8.45226 52.2827 8.5809 51.6835 8.83819C51.0842 9.09549 50.5494 9.46619 50.0788 9.9503C49.6082 10.4344 49.2307 11.0269 48.9464 11.7276C48.662 12.4284 48.5198 13.2223 48.5198 14.1093V14.5358C48.5198 15.301 48.6484 16.0085 48.9057 16.6585C49.163 17.3085 49.5219 17.8705 49.9823 18.3444C50.4427 18.8184 50.9962 19.1874 51.6428 19.4515ZM52.4503 10.2042C52.7888 10.0654 53.1477 9.99601 53.5268 9.99601C54.0076 9.99601 54.4223 10.084 54.771 10.2601C55.1197 10.4361 55.4091 10.6663 55.6393 10.9507C55.8695 11.2351 56.0439 11.5567 56.1624 11.9155C56.2809 12.2744 56.3503 12.6366 56.3706 13.0023V13.1444H50.4596C50.5341 12.6366 50.6645 12.1881 50.8507 11.7987C51.0369 11.4094 51.2654 11.081 51.5362 10.8136C51.807 10.5461 52.1117 10.343 52.4503 10.2042Z" fill="black"/>
<path fill-rule="evenodd" clip-rule="evenodd" d="M51.6428 19.4515C52.2895 19.7155 52.9987 19.8476 53.7706 19.8476C54.3055 19.8476 54.7997 19.7883 55.2534 19.6698C55.707 19.5513 56.1133 19.3939 56.4721 19.1976C56.831 19.0012 57.1475 18.7761 57.4218 18.5222C57.696 18.2683 57.9245 18.0025 58.1073 17.7249L56.9596 16.8312C56.6143 17.278 56.181 17.6369 55.6596 17.9077C55.1383 18.1786 54.5425 18.314 53.8721 18.314C53.3643 18.314 52.9005 18.2192 52.4807 18.0296C52.0609 17.84 51.7004 17.581 51.3991 17.2526C51.0978 16.9243 50.8608 16.54 50.6882 16.0999C50.5155 15.6598 50.419 15.1892 50.3987 14.6882H58.2495V13.8452C58.2495 13.0801 58.153 12.3692 57.96 11.7124C57.7671 11.0556 57.4742 10.4852 57.0815 10.0011C56.6888 9.51697 56.1962 9.1378 55.6038 8.86358C55.0113 8.58936 54.319 8.45226 53.5268 8.45226C52.8971 8.45226 52.2827 8.5809 51.6835 8.83819C51.0842 9.09549 50.5494 9.46619 50.0788 9.9503C49.6082 10.4344 49.2307 11.0269 48.9464 11.7276C48.662 12.4284 48.5198 13.2223 48.5198 14.1093V14.5358C48.5198 15.301 48.6484 16.0085 48.9057 16.6585C49.163 17.3085 49.5219 17.8705 49.9823 18.3444C50.4427 18.8184 50.9962 19.1874 51.6428 19.4515ZM52.4503 10.2042C52.7888 10.0654 53.1477 9.99601 53.5268 9.99601C54.0076 9.99601 54.4223 10.084 54.771 10.2601C55.1197 10.4361 55.4091 10.6663 55.6393 10.9507C55.8695 11.2351 56.0439 11.5567 56.1624 11.9155C56.2809 12.2744 56.3503 12.6366 56.3706 13.0023V13.1444H50.4596C50.5341 12.6366 50.6645 12.1881 50.8507 11.7987C51.0369 11.4094 51.2654 11.081 51.5362 10.8136C51.807 10.5461 52.1117 10.343 52.4503 10.2042Z" fill="#47CC68"/>
<path d="M65.7042 16.9429L65.8768 17.6233L66.0596 16.9429L69.137 8.65538H71.0565L66.5776 19.6444H65.1456L60.626 8.65538H62.5557L65.7042 16.9429Z" fill="black"/>
<path d="M65.7042 16.9429L65.8768 17.6233L66.0596 16.9429L69.137 8.65538H71.0565L66.5776 19.6444H65.1456L60.626 8.65538H62.5557L65.7042 16.9429Z" fill="#47CC68"/>
<path d="M83.5668 15.196C83.4787 15.8799 83.3027 16.5079 83.0386 17.08C82.7746 17.6521 82.431 18.143 82.0078 18.5526C81.5846 18.9623 81.0836 19.2805 80.5046 19.5073C79.9257 19.7342 79.2808 19.8476 78.5699 19.8476C77.9605 19.8476 77.407 19.7612 76.9093 19.5886C76.4117 19.4159 75.9682 19.1773 75.5789 18.8726C75.1895 18.5679 74.8544 18.209 74.5734 17.796C74.2924 17.383 74.0588 16.9327 73.8726 16.4452C73.6864 15.9577 73.5476 15.4465 73.4562 14.9116C73.3648 14.3767 73.3157 13.8351 73.3089 13.2866V11.2249C73.3157 10.6765 73.3648 10.1348 73.4562 9.59991C73.5476 9.06501 73.6864 8.55382 73.8726 8.06632C74.0588 7.57881 74.2924 7.12687 74.5734 6.71046C74.8544 6.29405 75.1895 5.93351 75.5789 5.62882C75.9682 5.32413 76.41 5.08546 76.9043 4.9128C77.3985 4.74014 77.9537 4.65382 78.5699 4.65382C79.3079 4.65382 79.9681 4.76723 80.5504 4.99405C81.1326 5.22087 81.6337 5.54249 82.0535 5.95889C82.4733 6.3753 82.8101 6.87465 83.064 7.45694C83.3179 8.03924 83.4855 8.68246 83.5668 9.38663H81.6879C81.6269 8.93975 81.522 8.52335 81.373 8.13741C81.224 7.75147 81.0243 7.41293 80.7738 7.12178C80.5233 6.83064 80.2169 6.60212 79.8546 6.43624C79.4924 6.27035 79.0642 6.18741 78.5699 6.18741C78.123 6.18741 77.7286 6.2602 77.3867 6.40577C77.0448 6.55134 76.7502 6.74939 76.5031 6.99991C76.2559 7.25043 76.0494 7.54158 75.8836 7.87335C75.7177 8.20512 75.5839 8.5572 75.4824 8.9296C75.3808 9.302 75.308 9.68285 75.264 10.0722C75.22 10.4615 75.198 10.839 75.198 11.2046V13.2866C75.198 13.6523 75.22 14.0297 75.264 14.4191C75.308 14.8084 75.3808 15.1909 75.4824 15.5667C75.5839 15.9425 75.716 16.2963 75.8785 16.628C76.041 16.9598 76.2475 17.2526 76.498 17.5066C76.7485 17.7605 77.0431 17.9602 77.3816 18.1058C77.7201 18.2513 78.1162 18.3241 78.5699 18.3241C79.0642 18.3241 79.4924 18.2463 79.8546 18.0905C80.2169 17.9348 80.5233 17.7164 80.7738 17.4355C81.0243 17.1545 81.224 16.8227 81.373 16.4401C81.522 16.0576 81.6269 15.6429 81.6879 15.196H83.5668Z" fill="black"/>
<path d="M83.5668 15.196C83.4787 15.8799 83.3027 16.5079 83.0386 17.08C82.7746 17.6521 82.431 18.143 82.0078 18.5526C81.5846 18.9623 81.0836 19.2805 80.5046 19.5073C79.9257 19.7342 79.2808 19.8476 78.5699 19.8476C77.9605 19.8476 77.407 19.7612 76.9093 19.5886C76.4117 19.4159 75.9682 19.1773 75.5789 18.8726C75.1895 18.5679 74.8544 18.209 74.5734 17.796C74.2924 17.383 74.0588 16.9327 73.8726 16.4452C73.6864 15.9577 73.5476 15.4465 73.4562 14.9116C73.3648 14.3767 73.3157 13.8351 73.3089 13.2866V11.2249C73.3157 10.6765 73.3648 10.1348 73.4562 9.59991C73.5476 9.06501 73.6864 8.55382 73.8726 8.06632C74.0588 7.57881 74.2924 7.12687 74.5734 6.71046C74.8544 6.29405 75.1895 5.93351 75.5789 5.62882C75.9682 5.32413 76.41 5.08546 76.9043 4.9128C77.3985 4.74014 77.9537 4.65382 78.5699 4.65382C79.3079 4.65382 79.9681 4.76723 80.5504 4.99405C81.1326 5.22087 81.6337 5.54249 82.0535 5.95889C82.4733 6.3753 82.8101 6.87465 83.064 7.45694C83.3179 8.03924 83.4855 8.68246 83.5668 9.38663H81.6879C81.6269 8.93975 81.522 8.52335 81.373 8.13741C81.224 7.75147 81.0243 7.41293 80.7738 7.12178C80.5233 6.83064 80.2169 6.60212 79.8546 6.43624C79.4924 6.27035 79.0642 6.18741 78.5699 6.18741C78.123 6.18741 77.7286 6.2602 77.3867 6.40577C77.0448 6.55134 76.7502 6.74939 76.5031 6.99991C76.2559 7.25043 76.0494 7.54158 75.8836 7.87335C75.7177 8.20512 75.5839 8.5572 75.4824 8.9296C75.3808 9.302 75.308 9.68285 75.264 10.0722C75.22 10.4615 75.198 10.839 75.198 11.2046V13.2866C75.198 13.6523 75.22 14.0297 75.264 14.4191C75.308 14.8084 75.3808 15.1909 75.4824 15.5667C75.5839 15.9425 75.716 16.2963 75.8785 16.628C76.041 16.9598 76.2475 17.2526 76.498 17.5066C76.7485 17.7605 77.0431 17.9602 77.3816 18.1058C77.7201 18.2513 78.1162 18.3241 78.5699 18.3241C79.0642 18.3241 79.4924 18.2463 79.8546 18.0905C80.2169 17.9348 80.5233 17.7164 80.7738 17.4355C81.0243 17.1545 81.224 16.8227 81.373 16.4401C81.522 16.0576 81.6269 15.6429 81.6879 15.196H83.5668Z" fill="white"/>
<path d="M88.3504 10.2905C88.7431 9.71501 89.2272 9.26645 89.8027 8.94483C90.3782 8.62322 91.0248 8.45902 91.7425 8.45225C92.3181 8.45225 92.8411 8.5352 93.3117 8.70108C93.7823 8.86697 94.1834 9.12595 94.5152 9.47803C94.847 9.83012 95.1026 10.2753 95.282 10.8136C95.4614 11.3519 95.5511 11.99 95.5511 12.728V19.6444H93.6722V12.7077C93.6722 11.8072 93.4573 11.1369 93.0273 10.6968C92.5974 10.2567 91.9829 10.04 91.1839 10.0468C90.5813 10.0468 90.0346 10.194 89.5437 10.4886C89.0528 10.7831 88.655 11.1741 88.3504 11.6616V19.6444H86.4714V4.04444H88.3504V10.2905Z" fill="black"/>
<path d="M88.3504 10.2905C88.7431 9.71501 89.2272 9.26645 89.8027 8.94483C90.3782 8.62322 91.0248 8.45902 91.7425 8.45225C92.3181 8.45225 92.8411 8.5352 93.3117 8.70108C93.7823 8.86697 94.1834 9.12595 94.5152 9.47803C94.847 9.83012 95.1026 10.2753 95.282 10.8136C95.4614 11.3519 95.5511 11.99 95.5511 12.728V19.6444H93.6722V12.7077C93.6722 11.8072 93.4573 11.1369 93.0273 10.6968C92.5974 10.2567 91.9829 10.04 91.1839 10.0468C90.5813 10.0468 90.0346 10.194 89.5437 10.4886C89.0528 10.7831 88.655 11.1741 88.3504 11.6616V19.6444H86.4714V4.04444H88.3504V10.2905Z" fill="white"/>
<path fill-rule="evenodd" clip-rule="evenodd" d="M101.68 19.4515C102.327 19.7155 103.036 19.8476 103.808 19.8476C104.343 19.8476 104.837 19.7883 105.291 19.6698C105.745 19.5513 106.151 19.3939 106.51 19.1976C106.869 19.0012 107.185 18.7761 107.459 18.5222C107.734 18.2683 107.962 18.0025 108.145 17.7249L106.997 16.8312C106.652 17.278 106.219 17.6369 105.697 17.9077C105.176 18.1786 104.58 18.314 103.91 18.314C103.402 18.314 102.938 18.2192 102.518 18.0296C102.099 17.84 101.738 17.581 101.437 17.2526C101.135 16.9243 100.898 16.54 100.726 16.0999C100.553 15.6598 100.457 15.1892 100.436 14.6882H108.287V13.8452C108.287 13.0801 108.191 12.3692 107.998 11.7124C107.805 11.0556 107.512 10.4852 107.119 10.0011C106.726 9.51697 106.234 9.1378 105.641 8.86358C105.049 8.58936 104.357 8.45226 103.564 8.45226C102.935 8.45226 102.32 8.5809 101.721 8.83819C101.122 9.09549 100.587 9.46619 100.116 9.9503C99.6458 10.4344 99.2683 11.0269 98.9839 11.7276C98.6996 12.4284 98.5574 13.2223 98.5574 14.1093V14.5358C98.5574 15.301 98.686 16.0085 98.9433 16.6585C99.2006 17.3085 99.5595 17.8705 100.02 18.3444C100.48 18.8184 101.034 19.1874 101.68 19.4515ZM102.488 10.2042C102.826 10.0654 103.185 9.99601 103.564 9.99601C104.045 9.99601 104.46 10.084 104.809 10.2601C105.157 10.4361 105.447 10.6663 105.677 10.9507C105.907 11.2351 106.081 11.5567 106.2 11.9155C106.318 12.2744 106.388 12.6366 106.408 13.0023V13.1444H100.497C100.572 12.6366 100.702 12.1881 100.888 11.7987C101.074 11.4094 101.303 11.081 101.574 10.8136C101.845 10.5461 102.149 10.343 102.488 10.2042Z" fill="black"/>
<path fill-rule="evenodd" clip-rule="evenodd" d="M101.68 19.4515C102.327 19.7155 103.036 19.8476 103.808 19.8476C104.343 19.8476 104.837 19.7883 105.291 19.6698C105.745 19.5513 106.151 19.3939 106.51 19.1976C106.869 19.0012 107.185 18.7761 107.459 18.5222C107.734 18.2683 107.962 18.0025 108.145 17.7249L106.997 16.8312C106.652 17.278 106.219 17.6369 105.697 17.9077C105.176 18.1786 104.58 18.314 103.91 18.314C103.402 18.314 102.938 18.2192 102.518 18.0296C102.099 17.84 101.738 17.581 101.437 17.2526C101.135 16.9243 100.898 16.54 100.726 16.0999C100.553 15.6598 100.457 15.1892 100.436 14.6882H108.287V13.8452C108.287 13.0801 108.191 12.3692 107.998 11.7124C107.805 11.0556 107.512 10.4852 107.119 10.0011C106.726 9.51697 106.234 9.1378 105.641 8.86358C105.049 8.58936 104.357 8.45226 103.564 8.45226C102.935 8.45226 102.32 8.5809 101.721 8.83819C101.122 9.09549 100.587 9.46619 100.116 9.9503C99.6458 10.4344 99.2683 11.0269 98.9839 11.7276C98.6996 12.4284 98.5574 13.2223 98.5574 14.1093V14.5358C98.5574 15.301 98.686 16.0085 98.9433 16.6585C99.2006 17.3085 99.5595 17.8705 100.02 18.3444C100.48 18.8184 101.034 19.1874 101.68 19.4515ZM102.488 10.2042C102.826 10.0654 103.185 9.99601 103.564 9.99601C104.045 9.99601 104.46 10.084 104.809 10.2601C105.157 10.4361 105.447 10.6663 105.677 10.9507C105.907 11.2351 106.081 11.5567 106.2 11.9155C106.318 12.2744 106.388 12.6366 106.408 13.0023V13.1444H100.497C100.572 12.6366 100.702 12.1881 100.888 11.7987C101.074 11.4094 101.303 11.081 101.574 10.8136C101.845 10.5461 102.149 10.343 102.488 10.2042Z" fill="white"/>
<path d="M116.118 18.3241C116.456 18.3241 116.786 18.27 117.108 18.1616C117.429 18.0533 117.715 17.9026 117.966 17.7097C118.217 17.5167 118.418 17.2899 118.57 17.0292C118.723 16.7685 118.802 16.4859 118.809 16.1812H120.586C120.58 16.6687 120.453 17.1342 120.205 17.5776C119.958 18.0211 119.628 18.4105 119.215 18.7456C118.802 19.0808 118.328 19.3482 117.793 19.548C117.258 19.7477 116.7 19.8476 116.118 19.8476C115.285 19.8476 114.557 19.6986 113.934 19.4007C113.311 19.1028 112.791 18.7016 112.375 18.1972C111.959 17.6927 111.645 17.1105 111.436 16.4503C111.226 15.7901 111.121 15.0944 111.121 14.3632V13.9366C111.121 13.2121 111.226 12.5181 111.436 11.8546C111.645 11.1911 111.959 10.6071 112.375 10.1026C112.791 9.59822 113.311 9.19705 113.934 8.89913C114.557 8.60121 115.285 8.45226 116.118 8.45226C116.768 8.45226 117.365 8.55551 117.91 8.76202C118.455 8.96853 118.926 9.24952 119.322 9.60499C119.718 9.96046 120.028 10.3819 120.251 10.8694C120.475 11.3569 120.586 11.8783 120.586 12.4335H118.809C118.802 12.1017 118.729 11.7886 118.591 11.4941C118.452 11.1995 118.264 10.9405 118.027 10.7171C117.79 10.4937 117.507 10.3176 117.179 10.189C116.85 10.0603 116.497 9.99601 116.118 9.99601C115.535 9.99601 115.046 10.1128 114.65 10.3464C114.254 10.58 113.934 10.8847 113.69 11.2605C113.446 11.6362 113.272 12.0577 113.167 12.5249C113.062 12.9921 113.01 13.4627 113.01 13.9366V14.3632C113.01 14.8439 113.062 15.3196 113.167 15.7901C113.272 16.2607 113.445 16.6839 113.685 17.0597C113.925 17.4355 114.244 17.7401 114.64 17.9737C115.036 18.2073 115.528 18.3241 116.118 18.3241Z" fill="black"/>
<path d="M116.118 18.3241C116.456 18.3241 116.786 18.27 117.108 18.1616C117.429 18.0533 117.715 17.9026 117.966 17.7097C118.217 17.5167 118.418 17.2899 118.57 17.0292C118.723 16.7685 118.802 16.4859 118.809 16.1812H120.586C120.58 16.6687 120.453 17.1342 120.205 17.5776C119.958 18.0211 119.628 18.4105 119.215 18.7456C118.802 19.0808 118.328 19.3482 117.793 19.548C117.258 19.7477 116.7 19.8476 116.118 19.8476C115.285 19.8476 114.557 19.6986 113.934 19.4007C113.311 19.1028 112.791 18.7016 112.375 18.1972C111.959 17.6927 111.645 17.1105 111.436 16.4503C111.226 15.7901 111.121 15.0944 111.121 14.3632V13.9366C111.121 13.2121 111.226 12.5181 111.436 11.8546C111.645 11.1911 111.959 10.6071 112.375 10.1026C112.791 9.59822 113.311 9.19705 113.934 8.89913C114.557 8.60121 115.285 8.45226 116.118 8.45226C116.768 8.45226 117.365 8.55551 117.91 8.76202C118.455 8.96853 118.926 9.24952 119.322 9.60499C119.718 9.96046 120.028 10.3819 120.251 10.8694C120.475 11.3569 120.586 11.8783 120.586 12.4335H118.809C118.802 12.1017 118.729 11.7886 118.591 11.4941C118.452 11.1995 118.264 10.9405 118.027 10.7171C117.79 10.4937 117.507 10.3176 117.179 10.189C116.85 10.0603 116.497 9.99601 116.118 9.99601C115.535 9.99601 115.046 10.1128 114.65 10.3464C114.254 10.58 113.934 10.8847 113.69 11.2605C113.446 11.6362 113.272 12.0577 113.167 12.5249C113.062 12.9921 113.01 13.4627 113.01 13.9366V14.3632C113.01 14.8439 113.062 15.3196 113.167 15.7901C113.272 16.2607 113.445 16.6839 113.685 17.0597C113.925 17.4355 114.244 17.7401 114.64 17.9737C115.036 18.2073 115.528 18.3241 116.118 18.3241Z" fill="white"/>
<path d="M127.208 14.5155L125.827 15.846V19.6444H123.938V4.04444H125.827V13.5913L127.056 12.271L130.661 8.65538H132.946L128.498 13.2358L133.627 19.6444H131.24L127.208 14.5155Z" fill="black"/>
<path d="M127.208 14.5155L125.827 15.846V19.6444H123.938V4.04444H125.827V13.5913L127.056 12.271L130.661 8.65538H132.946L128.498 13.2358L133.627 19.6444H131.24L127.208 14.5155Z" fill="white"/>
<path d="M136.694 4.04444H142.311V18.0194H145.896V19.6444H136.694V18.0194H140.432V5.6796H136.694V4.04444Z" fill="black"/>
<path d="M136.694 4.04444H142.311V18.0194H145.896V19.6444H136.694V18.0194H140.432V5.6796H136.694V4.04444Z" fill="white"/>
<path d="M149.176 8.65538H154.793V18.0194H158.378V19.6444H149.176V18.0194H152.914V10.2905H149.176V8.65538Z" fill="black"/>
<path d="M149.176 8.65538H154.793V18.0194H158.378V19.6444H149.176V18.0194H152.914V10.2905H149.176V8.65538Z" fill="white"/>
<path d="M152.67 5.771C152.67 5.45954 152.763 5.19718 152.949 4.98389C153.135 4.77061 153.418 4.66397 153.797 4.66397C154.17 4.66397 154.451 4.77061 154.64 4.98389C154.83 5.19718 154.925 5.45954 154.925 5.771C154.925 6.07569 154.83 6.32959 154.64 6.53272C154.451 6.73585 154.17 6.83741 153.797 6.83741C153.418 6.83741 153.135 6.73585 152.949 6.53272C152.763 6.32959 152.67 6.07569 152.67 5.771Z" fill="black"/>
<path d="M152.67 5.771C152.67 5.45954 152.763 5.19718 152.949 4.98389C153.135 4.77061 153.418 4.66397 153.797 4.66397C154.17 4.66397 154.451 4.77061 154.64 4.98389C154.83 5.19718 154.925 5.45954 154.925 5.771C154.925 6.07569 154.83 6.32959 154.64 6.53272C154.451 6.73585 154.17 6.83741 153.797 6.83741C153.418 6.83741 153.135 6.73585 152.949 6.53272C152.763 6.32959 152.67 6.07569 152.67 5.771Z" fill="white"/>
<path d="M168.666 16.7296C168.666 16.5062 168.622 16.3047 168.534 16.1253C168.446 15.9459 168.297 15.7817 168.087 15.6327C167.877 15.4838 167.6 15.3467 167.254 15.2214C166.909 15.0961 166.479 14.9827 165.964 14.8812C165.335 14.7525 164.761 14.5968 164.243 14.414C163.725 14.2312 163.281 14.0128 162.912 13.7589C162.543 13.505 162.257 13.2071 162.054 12.8651C161.851 12.5232 161.75 12.1254 161.75 11.6718C161.75 11.2249 161.855 10.8068 162.064 10.4175C162.274 10.0282 162.569 9.68793 162.948 9.39679C163.327 9.10564 163.779 8.87543 164.304 8.70616C164.829 8.53689 165.406 8.45226 166.036 8.45226C166.713 8.45226 167.322 8.54028 167.864 8.71632C168.405 8.89236 168.866 9.13611 169.245 9.44757C169.624 9.75903 169.917 10.123 170.123 10.5394C170.33 10.9558 170.433 11.4043 170.433 11.8851H168.554C168.554 11.6481 168.493 11.4162 168.371 11.1894C168.25 10.9625 168.08 10.7611 167.864 10.5851C167.647 10.409 167.385 10.2668 167.077 10.1585C166.768 10.0502 166.421 9.99601 166.036 9.99601C165.636 9.99601 165.286 10.04 164.984 10.128C164.683 10.2161 164.433 10.3345 164.233 10.4835C164.033 10.6325 163.882 10.8051 163.781 11.0015C163.679 11.1978 163.628 11.401 163.628 11.6108C163.628 11.8275 163.669 12.0205 163.75 12.1898C163.832 12.359 163.972 12.5114 164.172 12.6468C164.372 12.7822 164.639 12.9041 164.974 13.0124C165.309 13.1207 165.734 13.2257 166.249 13.3273C166.926 13.4694 167.532 13.6336 168.067 13.8198C168.602 14.006 169.052 14.2295 169.418 14.4901C169.783 14.7508 170.062 15.0538 170.255 15.3991C170.448 15.7444 170.545 16.1439 170.545 16.5976C170.545 17.0851 170.435 17.5286 170.215 17.928C169.995 18.3275 169.688 18.6694 169.296 18.9538C168.903 19.2382 168.432 19.4582 167.884 19.614C167.336 19.7697 166.736 19.8476 166.086 19.8476C165.341 19.8476 164.678 19.7477 164.096 19.548C163.513 19.3482 163.021 19.0842 162.618 18.7558C162.215 18.4274 161.907 18.0465 161.694 17.6132C161.48 17.1799 161.374 16.7296 161.374 16.2624H163.253C163.28 16.6484 163.383 16.9733 163.562 17.2374C163.742 17.5015 163.965 17.7148 164.233 17.8773C164.5 18.0398 164.796 18.1549 165.121 18.2226C165.446 18.2903 165.768 18.3241 166.086 18.3241C166.878 18.3241 167.505 18.1786 167.965 17.8874C168.426 17.5963 168.659 17.2103 168.666 16.7296Z" fill="black"/>
<path d="M168.666 16.7296C168.666 16.5062 168.622 16.3047 168.534 16.1253C168.446 15.9459 168.297 15.7817 168.087 15.6327C167.877 15.4838 167.6 15.3467 167.254 15.2214C166.909 15.0961 166.479 14.9827 165.964 14.8812C165.335 14.7525 164.761 14.5968 164.243 14.414C163.725 14.2312 163.281 14.0128 162.912 13.7589C162.543 13.505 162.257 13.2071 162.054 12.8651C161.851 12.5232 161.75 12.1254 161.75 11.6718C161.75 11.2249 161.855 10.8068 162.064 10.4175C162.274 10.0282 162.569 9.68793 162.948 9.39679C163.327 9.10564 163.779 8.87543 164.304 8.70616C164.829 8.53689 165.406 8.45226 166.036 8.45226C166.713 8.45226 167.322 8.54028 167.864 8.71632C168.405 8.89236 168.866 9.13611 169.245 9.44757C169.624 9.75903 169.917 10.123 170.123 10.5394C170.33 10.9558 170.433 11.4043 170.433 11.8851H168.554C168.554 11.6481 168.493 11.4162 168.371 11.1894C168.25 10.9625 168.08 10.7611 167.864 10.5851C167.647 10.409 167.385 10.2668 167.077 10.1585C166.768 10.0502 166.421 9.99601 166.036 9.99601C165.636 9.99601 165.286 10.04 164.984 10.128C164.683 10.2161 164.433 10.3345 164.233 10.4835C164.033 10.6325 163.882 10.8051 163.781 11.0015C163.679 11.1978 163.628 11.401 163.628 11.6108C163.628 11.8275 163.669 12.0205 163.75 12.1898C163.832 12.359 163.972 12.5114 164.172 12.6468C164.372 12.7822 164.639 12.9041 164.974 13.0124C165.309 13.1207 165.734 13.2257 166.249 13.3273C166.926 13.4694 167.532 13.6336 168.067 13.8198C168.602 14.006 169.052 14.2295 169.418 14.4901C169.783 14.7508 170.062 15.0538 170.255 15.3991C170.448 15.7444 170.545 16.1439 170.545 16.5976C170.545 17.0851 170.435 17.5286 170.215 17.928C169.995 18.3275 169.688 18.6694 169.296 18.9538C168.903 19.2382 168.432 19.4582 167.884 19.614C167.336 19.7697 166.736 19.8476 166.086 19.8476C165.341 19.8476 164.678 19.7477 164.096 19.548C163.513 19.3482 163.021 19.0842 162.618 18.7558C162.215 18.4274 161.907 18.0465 161.694 17.6132C161.48 17.1799 161.374 16.7296 161.374 16.2624H163.253C163.28 16.6484 163.383 16.9733 163.562 17.2374C163.742 17.5015 163.965 17.7148 164.233 17.8773C164.5 18.0398 164.796 18.1549 165.121 18.2226C165.446 18.2903 165.768 18.3241 166.086 18.3241C166.878 18.3241 167.505 18.1786 167.965 17.8874C168.426 17.5963 168.659 17.2103 168.666 16.7296Z" fill="white"/>
<path d="M178.294 5.99444V8.65538H182.478V10.1077H178.294V16.0796C178.294 16.5062 178.348 16.8582 178.457 17.1358C178.565 17.4134 178.714 17.6352 178.903 17.8011C179.093 17.967 179.311 18.0838 179.559 18.1515C179.806 18.2192 180.068 18.253 180.346 18.253C180.549 18.253 180.759 18.2412 180.975 18.2175C181.192 18.1938 181.404 18.165 181.61 18.1312C181.817 18.0973 182.01 18.0618 182.189 18.0245C182.368 17.9873 182.516 17.9551 182.631 17.928L182.895 19.2585C182.739 19.3533 182.55 19.4362 182.326 19.5073C182.103 19.5784 181.859 19.6394 181.595 19.6901C181.331 19.7409 181.052 19.7799 180.757 19.8069C180.462 19.834 180.17 19.8476 179.878 19.8476C179.391 19.8476 178.936 19.7782 178.512 19.6394C178.089 19.5006 177.722 19.2805 177.411 18.9792C177.099 18.6779 176.854 18.2886 176.674 17.8112C176.495 17.3339 176.405 16.7567 176.405 16.0796V10.1077H173.521V8.65538H176.405V5.99444H178.294Z" fill="black"/>
<path d="M178.294 5.99444V8.65538H182.478V10.1077H178.294V16.0796C178.294 16.5062 178.348 16.8582 178.457 17.1358C178.565 17.4134 178.714 17.6352 178.903 17.8011C179.093 17.967 179.311 18.0838 179.559 18.1515C179.806 18.2192 180.068 18.253 180.346 18.253C180.549 18.253 180.759 18.2412 180.975 18.2175C181.192 18.1938 181.404 18.165 181.61 18.1312C181.817 18.0973 182.01 18.0618 182.189 18.0245C182.368 17.9873 182.516 17.9551 182.631 17.928L182.895 19.2585C182.739 19.3533 182.55 19.4362 182.326 19.5073C182.103 19.5784 181.859 19.6394 181.595 19.6901C181.331 19.7409 181.052 19.7799 180.757 19.8069C180.462 19.834 180.17 19.8476 179.878 19.8476C179.391 19.8476 178.936 19.7782 178.512 19.6394C178.089 19.5006 177.722 19.2805 177.411 18.9792C177.099 18.6779 176.854 18.2886 176.674 17.8112C176.495 17.3339 176.405 16.7567 176.405 16.0796V10.1077H173.521V8.65538H176.405V5.99444H178.294Z" fill="white"/>
<path d="M193.63 16.7296C193.63 16.5062 193.586 16.3047 193.498 16.1253C193.41 15.9459 193.261 15.7817 193.051 15.6327C192.841 15.4838 192.564 15.3467 192.218 15.2214C191.873 15.0961 191.443 14.9827 190.928 14.8812C190.299 14.7525 189.725 14.5968 189.207 14.414C188.689 14.2312 188.246 14.0128 187.877 13.7589C187.508 13.505 187.221 13.2071 187.018 12.8651C186.815 12.5232 186.714 12.1254 186.714 11.6718C186.714 11.2249 186.819 10.8068 187.028 10.4175C187.238 10.0282 187.533 9.68793 187.912 9.39679C188.291 9.10564 188.743 8.87543 189.268 8.70616C189.793 8.53689 190.37 8.45226 191 8.45226C191.677 8.45226 192.286 8.54028 192.828 8.71632C193.369 8.89236 193.83 9.13611 194.209 9.44757C194.588 9.75903 194.881 10.123 195.087 10.5394C195.294 10.9558 195.397 11.4043 195.397 11.8851H193.518C193.518 11.6481 193.457 11.4162 193.336 11.1894C193.214 10.9625 193.044 10.7611 192.828 10.5851C192.611 10.409 192.349 10.2668 192.041 10.1585C191.733 10.0502 191.386 9.99601 191 9.99601C190.6 9.99601 190.25 10.04 189.948 10.128C189.647 10.2161 189.397 10.3345 189.197 10.4835C188.997 10.6325 188.846 10.8051 188.745 11.0015C188.643 11.1978 188.593 11.401 188.593 11.6108C188.593 11.8275 188.633 12.0205 188.714 12.1898C188.796 12.359 188.936 12.5114 189.136 12.6468C189.336 12.7822 189.603 12.9041 189.938 13.0124C190.273 13.1207 190.698 13.2257 191.213 13.3273C191.89 13.4694 192.496 13.6336 193.031 13.8198C193.566 14.006 194.016 14.2295 194.382 14.4901C194.747 14.7508 195.027 15.0538 195.219 15.3991C195.412 15.7444 195.509 16.1439 195.509 16.5976C195.509 17.0851 195.399 17.5286 195.179 17.928C194.959 18.3275 194.652 18.6694 194.26 18.9538C193.867 19.2382 193.396 19.4582 192.848 19.614C192.3 19.7697 191.7 19.8476 191.05 19.8476C190.306 19.8476 189.642 19.7477 189.06 19.548C188.477 19.3482 187.985 19.0842 187.582 18.7558C187.179 18.4274 186.871 18.0465 186.658 17.6132C186.444 17.1799 186.338 16.7296 186.338 16.2624H188.217C188.244 16.6484 188.347 16.9733 188.527 17.2374C188.706 17.5015 188.929 17.7148 189.197 17.8773C189.464 18.0398 189.76 18.1549 190.086 18.2226C190.411 18.2903 190.732 18.3241 191.05 18.3241C191.843 18.3241 192.469 18.1786 192.929 17.8874C193.39 17.5963 193.623 17.2103 193.63 16.7296Z" fill="black"/>
<path d="M193.63 16.7296C193.63 16.5062 193.586 16.3047 193.498 16.1253C193.41 15.9459 193.261 15.7817 193.051 15.6327C192.841 15.4838 192.564 15.3467 192.218 15.2214C191.873 15.0961 191.443 14.9827 190.928 14.8812C190.299 14.7525 189.725 14.5968 189.207 14.414C188.689 14.2312 188.246 14.0128 187.877 13.7589C187.508 13.505 187.221 13.2071 187.018 12.8651C186.815 12.5232 186.714 12.1254 186.714 11.6718C186.714 11.2249 186.819 10.8068 187.028 10.4175C187.238 10.0282 187.533 9.68793 187.912 9.39679C188.291 9.10564 188.743 8.87543 189.268 8.70616C189.793 8.53689 190.37 8.45226 191 8.45226C191.677 8.45226 192.286 8.54028 192.828 8.71632C193.369 8.89236 193.83 9.13611 194.209 9.44757C194.588 9.75903 194.881 10.123 195.087 10.5394C195.294 10.9558 195.397 11.4043 195.397 11.8851H193.518C193.518 11.6481 193.457 11.4162 193.336 11.1894C193.214 10.9625 193.044 10.7611 192.828 10.5851C192.611 10.409 192.349 10.2668 192.041 10.1585C191.733 10.0502 191.386 9.99601 191 9.99601C190.6 9.99601 190.25 10.04 189.948 10.128C189.647 10.2161 189.397 10.3345 189.197 10.4835C188.997 10.6325 188.846 10.8051 188.745 11.0015C188.643 11.1978 188.593 11.401 188.593 11.6108C188.593 11.8275 188.633 12.0205 188.714 12.1898C188.796 12.359 188.936 12.5114 189.136 12.6468C189.336 12.7822 189.603 12.9041 189.938 13.0124C190.273 13.1207 190.698 13.2257 191.213 13.3273C191.89 13.4694 192.496 13.6336 193.031 13.8198C193.566 14.006 194.016 14.2295 194.382 14.4901C194.747 14.7508 195.027 15.0538 195.219 15.3991C195.412 15.7444 195.509 16.1439 195.509 16.5976C195.509 17.0851 195.399 17.5286 195.179 17.928C194.959 18.3275 194.652 18.6694 194.26 18.9538C193.867 19.2382 193.396 19.4582 192.848 19.614C192.3 19.7697 191.7 19.8476 191.05 19.8476C190.306 19.8476 189.642 19.7477 189.06 19.548C188.477 19.3482 187.985 19.0842 187.582 18.7558C187.179 18.4274 186.871 18.0465 186.658 17.6132C186.444 17.1799 186.338 16.7296 186.338 16.2624H188.217C188.244 16.6484 188.347 16.9733 188.527 17.2374C188.706 17.5015 188.929 17.7148 189.197 17.8773C189.464 18.0398 189.76 18.1549 190.086 18.2226C190.411 18.2903 190.732 18.3241 191.05 18.3241C191.843 18.3241 192.469 18.1786 192.929 17.8874C193.39 17.5963 193.623 17.2103 193.63 16.7296Z" fill="white"/>
<path d="M203.054 9.52881C203.054 9.32569 203.086 9.13611 203.15 8.96006C203.215 8.78402 203.308 8.62999 203.43 8.49795C203.552 8.36592 203.704 8.26267 203.887 8.18819C204.07 8.11371 204.283 8.07647 204.527 8.07647C204.77 8.07647 204.985 8.11371 205.171 8.18819C205.358 8.26267 205.513 8.36592 205.639 8.49795C205.764 8.62999 205.859 8.78402 205.923 8.96006C205.987 9.13611 206.02 9.32569 206.02 9.52881C206.02 9.72517 205.987 9.90967 205.923 10.0823C205.859 10.255 205.764 10.4056 205.639 10.5343C205.513 10.6629 205.358 10.7628 205.171 10.8339C204.985 10.905 204.77 10.9405 204.527 10.9405C204.283 10.9405 204.07 10.905 203.887 10.8339C203.704 10.7628 203.552 10.6629 203.43 10.5343C203.308 10.4056 203.215 10.255 203.15 10.0823C203.086 9.90967 203.054 9.72517 203.054 9.52881Z" fill="black"/>
<path d="M203.054 9.52881C203.054 9.32569 203.086 9.13611 203.15 8.96006C203.215 8.78402 203.308 8.62999 203.43 8.49795C203.552 8.36592 203.704 8.26267 203.887 8.18819C204.07 8.11371 204.283 8.07647 204.527 8.07647C204.77 8.07647 204.985 8.11371 205.171 8.18819C205.358 8.26267 205.513 8.36592 205.639 8.49795C205.764 8.62999 205.859 8.78402 205.923 8.96006C205.987 9.13611 206.02 9.32569 206.02 9.52881C206.02 9.72517 205.987 9.90967 205.923 10.0823C205.859 10.255 205.764 10.4056 205.639 10.5343C205.513 10.6629 205.358 10.7628 205.171 10.8339C204.985 10.905 204.77 10.9405 204.527 10.9405C204.283 10.9405 204.07 10.905 203.887 10.8339C203.704 10.7628 203.552 10.6629 203.43 10.5343C203.308 10.4056 203.215 10.255 203.15 10.0823C203.086 9.90967 203.054 9.72517 203.054 9.52881Z" fill="#47CC68"/>
<path d="M205.471 19.2077C205.471 19.526 205.432 19.8594 205.354 20.2081C205.276 20.5568 205.161 20.9021 205.009 21.244C204.857 21.586 204.672 21.9127 204.455 22.2241C204.239 22.5356 203.988 22.8132 203.704 23.0569L202.536 22.4171C202.861 21.9431 203.091 21.4387 203.227 20.9038C203.362 20.3689 203.43 19.8137 203.43 19.2382V17.4202H205.471V19.2077Z" fill="black"/>
<path d="M205.471 19.2077C205.471 19.526 205.432 19.8594 205.354 20.2081C205.276 20.5568 205.161 20.9021 205.009 21.244C204.857 21.586 204.672 21.9127 204.455 22.2241C204.239 22.5356 203.988 22.8132 203.704 23.0569L202.536 22.4171C202.861 21.9431 203.091 21.4387 203.227 20.9038C203.362 20.3689 203.43 19.8137 203.43 19.2382V17.4202H205.471V19.2077Z" fill="#47CC68"/>
<path d="M5.75063 12.3159L11.7098 18.2751L25.7406 3.97742" stroke="black" stroke-opacity="0.5" stroke-width="2.48889"/>
<path d="M5.75063 9.42702L11.7098 15.3862L25.7406 1.08853" stroke="#47CC68" stroke-width="2.48889"/>
</g>
<defs>
<filter id="filter0_d_28_911" x="0" y="1" width="23" height="26" filterUnits="userSpaceOnUse" color-interpolation-filters="sRGB">
<feFlood flood-opacity="0" result="BackgroundImageFix"/>
<feColorMatrix in="SourceAlpha" type="matrix" values="0 0 0 0 0 0 0 0 0 0 0 0 0 0 0 0 0 0 127 0" result="hardAlpha"/>
<feOffset dy="2"/>
<feColorMatrix type="matrix" values="0 0 0 0 0 0 0 0 0 0 0 0 0 0 0 0 0 0 0.5 0"/>
<feBlend mode="normal" in2="BackgroundImageFix" result="effect1_dropShadow_28_911"/>
<feBlend mode="normal" in="SourceGraphic" in2="effect1_dropShadow_28_911" result="shape"/>
</filter>
<clipPath id="clip0_28_911">
<rect width="207" height="25" fill="white"/>
</clipPath>
</defs>
</svg>
